<svg width="28" height="28" viewBox="0 0 28 28" fill="none" xmlns="http://www.w3.org/2000/svg">
<path d="M16.625 21H3.5L3.49738 7.79275L13.5021 14.7193C13.6484 14.8205 13.8221 14.8747 14 14.8747C14.1779 14.8747 14.3516 14.8205 14.4979 14.7193L24.5 7.79625V15.75H26.25V7C26.2493 6.53608 26.0647 6.09137 25.7367 5.76333C25.4086 5.43529 24.9639 5.25069 24.5 5.25H3.5C3.03601 5.25046 2.59116 5.43499 2.26307 5.76307C1.93499 6.09116 1.75046 6.53601 1.75 7V21C1.75069 21.4639 1.93529 21.9086 2.26333 22.2367C2.59137 22.5647 3.03608 22.7493 3.5 22.75H16.625V21ZM22.5741 7L14 12.936L5.42588 7H22.5741Z" fill="black"/>
<path d="M22.75 24.5C24.683 24.5 26.25 22.933 26.25 21C26.25 19.067 24.683 17.5 22.75 17.5C20.817 17.5 19.25 19.067 19.25 21C19.25 22.933 20.817 24.5 22.75 24.5Z" fill="black"/>
</svg>
